REM GENRE "Black Metal"
REM DATE 1997
REM DISCID 86086D09
REM COMMENT "ExactAudioCopy v0.99pb5"
PERFORMER "Belphegor"
TITLE "Blutsabbath (LEP 010/CD 5.7327.20.561)"
FILE "Belphegor - Blutsabbath (LEP 010 CD 5.7327.20.561).flac" WAVE
  TRACK 01 AUDIO
    TITLE "Abschworung"
    PERFORMER "Belphegor"
    FLAGS DCP
    INDEX 01 00:00:00
  TRACK 02 AUDIO
    TITLE "Blackest Ecstasy"
    PERFORMER "Belphegor"
    FLAGS DCP
    INDEX 00 03:37:16
    INDEX 01 03:40:16
  TRACK 03 AUDIO
    TITLE "Purity Through Fire"
    PERFORMER "Belphegor"
    FLAGS DCP
    INDEX 00 07:44:02
    INDEX 01 07:47:02
  TRACK 04 AUDIO
    TITLE "Behind The Black Moon"
    PERFORMER "Belphegor"
    FLAGS DCP
    INDEX 00 10:51:15
    INDEX 01 10:54:15
  TRACK 05 AUDIO
    TITLE "Blutsabbath"
    PERFORMER "Belphegor"
    FLAGS DCP
    INDEX 00 13:54:53
    INDEX 01 13:57:53
  TRACK 06 AUDIO
    TITLE "No Resurrection"
    PERFORMER "Belphegor"
    FLAGS DCP
    INDEX 00 19:52:35
    INDEX 01 19:55:35
  TRACK 07 AUDIO
    TITLE "The Requiem Of Hell"
    PERFORMER "Belphegor"
    FLAGS DCP
    INDEX 00 23:40:03
    INDEX 01 23:43:03
  TRACK 08 AUDIO
    TITLE "Untergang der Gekreuzigten"
    PERFORMER "Belphegor"
    FLAGS DCP
    INDEX 00 27:54:62
    INDEX 01 27:57:62
  TRACK 09 AUDIO
    TITLE "Path Of Sin"
    PERFORMER "Belphegor"
    FLAGS DCP
    INDEX 00 30:57:70
    INDEX 01 31:00:70
